<svg width="26" height="26" viewBox="0 0 26 26" fill="none" xmlns="http://www.w3.org/2000/svg">
<path fill-rule="evenodd" clip-rule="evenodd" d="M24.6667 4.54737C25.0271 4.259 25.0856 3.73301 24.7972 3.37255C24.5088 3.01208 23.9828 2.95364 23.6224 3.24201L19.9165 6.20674C18.0473 4.52807 15.6632 3.05885 13 3.05885C10.614 3.05885 8.45665 4.23905 6.70527 5.67304C4.94433 7.11486 3.50444 8.88594 2.53687 10.2337L2.45707 10.3447C1.87459 11.154 1.39512 11.8203 1.39512 12.8103C1.39511 13.8003 1.87449 14.4664 2.45685 15.2756L2.53661 15.3866C3.14544 16.2347 3.93846 17.2463 4.87813 18.2374L1.33333 21.0732C0.972868 21.3616 0.914425 21.8876 1.2028 22.2481C1.49117 22.6085 2.01716 22.667 2.37762 22.3786L24.6667 4.54737ZM13 4.73053C14.9812 4.73053 16.9032 5.79962 18.5915 7.2667L15.6753 9.59964C14.951 8.99558 14.0179 8.63112 13 8.63112C10.6919 8.63112 8.8208 10.5022 8.8208 12.8103C8.8208 13.4961 8.9865 14.1444 9.27984 14.716L6.18847 17.1891C5.27349 16.2368 4.49449 15.2473 3.8946 14.4117C3.19942 13.4433 3.06679 13.2099 3.06679 12.8103C3.0668 12.4107 3.19947 12.1772 3.89484 11.2086C4.81902 9.92127 6.16114 8.2791 7.7643 6.96647C9.37702 5.64601 11.1659 4.73053 13 4.73053ZM13 10.3028C13.4861 10.3028 13.9398 10.4408 14.3243 10.6804L10.631 13.6351C10.5412 13.377 10.4925 13.0996 10.4925 12.8103C10.4925 11.4254 11.6151 10.3028 13 10.3028Z" fill="#5B5B5B"/>
<path d="M22.3562 8.78799C22.0641 8.43055 21.5375 8.3776 21.1801 8.66972C20.8226 8.96184 20.7697 9.48841 21.0618 9.84584C21.4524 10.3238 21.802 10.7864 22.1051 11.2085C22.8005 12.1772 22.9332 12.4108 22.9332 12.8103C22.9332 13.2099 22.8005 13.4434 22.1052 14.412C21.181 15.6994 19.8389 17.3415 18.2357 18.6542C16.623 19.9746 14.8341 20.8901 13 20.8901C11.4344 20.8901 9.8998 20.2237 8.47257 19.1986C8.09764 18.9293 7.57539 19.0149 7.30609 19.3898C7.0368 19.7647 7.12243 20.287 7.49736 20.5563C9.08493 21.6966 10.9579 22.5618 13 22.5618C15.386 22.5618 17.5433 21.3816 19.2947 19.9476C21.0557 18.5058 22.4956 16.7347 23.4631 15.3869L23.5429 15.2759C24.1254 14.4666 24.6049 13.8003 24.6049 12.8103C24.6049 11.8203 24.1254 11.154 23.5429 10.3446L23.4631 10.2336C23.1425 9.78705 22.7717 9.29637 22.3562 8.78799Z" fill="#5B5B5B"/>
<path d="M17.1792 12.8103C17.1792 12.3487 16.805 11.9745 16.3434 11.9745C15.8817 11.9745 15.5075 12.3487 15.5075 12.8103C15.5075 14.1952 14.3849 15.3178 13 15.3178C12.5384 15.3178 12.1642 15.692 12.1642 16.1537C12.1642 16.6153 12.5384 16.9895 13 16.9895C15.3081 16.9895 17.1792 15.1184 17.1792 12.8103Z" fill="#5B5B5B"/>
</svg>
