<svg width="32" height="32" viewBox="0 0 32 32" fill="none" xmlns="http://www.w3.org/2000/svg">
<path d="M16 28.8666C15.5866 28.8666 15.1866 28.8133 14.8533 28.6933C9.75996 26.9466 1.66663 20.7466 1.66663 11.5866C1.66663 6.91997 5.43996 3.1333 10.08 3.1333C12.3333 3.1333 14.44 4.0133 16 5.58663C17.56 4.0133 19.6666 3.1333 21.92 3.1333C26.56 3.1333 30.3333 6.9333 30.3333 11.5866C30.3333 20.76 22.24 26.9466 17.1466 28.6933C16.8133 28.8133 16.4133 28.8666 16 28.8666ZM10.08 5.1333C6.54663 5.1333 3.66663 8.02663 3.66663 11.5866C3.66663 20.6933 12.4266 25.76 15.5066 26.8133C15.7466 26.8933 16.2666 26.8933 16.5066 26.8133C19.5733 25.76 28.3466 20.7066 28.3466 11.5866C28.3466 8.02663 25.4666 5.1333 21.9333 5.1333C19.9066 5.1333 18.0266 6.07997 16.8133 7.71997C16.44 8.22663 15.5866 8.22663 15.2133 7.71997C13.9733 6.06663 12.1066 5.1333 10.08 5.1333Z" fill="#1ED760"/>
</svg>
