<svg width="9" height="18" viewBox="0 0 9 18" fill="none" xmlns="http://www.w3.org/2000/svg">
<path d="M0.776068 18.0001C0.578806 18.0001 0.381545 17.9274 0.225812 17.7717C-0.0752708 17.4706 -0.0752708 16.9723 0.225812 16.6712L6.99499 9.902C7.49334 9.40366 7.49334 8.59385 6.99499 8.0955L0.225812 1.32632C-0.0752708 1.02524 -0.0752708 0.526896 0.225812 0.225812C0.526896 -0.0752708 1.02524 -0.0752708 1.32632 0.225812L8.0955 6.99499C8.62499 7.52448 8.92608 8.24085 8.92608 8.99875C8.92608 9.75665 8.63538 10.473 8.0955 11.0025L1.32632 17.7717C1.17059 17.917 0.973329 18.0001 0.776068 18.0001Z" fill="white"/>
</svg>
